# xmcd
#
# Track frame offsets:
#	150
#	55502
#	81737
#	114022
#	153304
#	183146
#	196653
#	226071
#	254554
#
# Disc length: 4451 seconds
#
# Revision: 1
# Processed by: cddbd v1.5.2PL0 Copyright (c) Steve Scherf et al.
# Submitted via: audiograbber 1.83.01
#
DISCID=63116109
DTITLE=Grateful Dead - 78-05-14A Providence Civic Centre, Providence RI
DYEAR=1900
DGENRE=
TTITLE0=Mississippi Half-Step
TTITLE1=Cassidy
TTITLE2=They Love Each Other
TTITLE3=Looks Like Rain
TTITLE4=It Must Have Been The Roses
TTITLE5=Me and My Uncle
TTITLE6=Big River
TTITLE7=Brown Eyed Women
TTITLE8=Let It Grow
EXTD=
EXTT0=
EXTT1=
EXTT2=
EXTT3=
EXTT4=
EXTT5=
EXTT6=
EXTT7=
EXTT8=
PLAYORDER=
